<svg xmlns="http://www.w3.org/2000/svg" width="920" height="520" viewBox="0 0 920 520">
<rect width="100%" height="100%" fill="#fff"/><text x="80" y="30" font-family="Arial" font-size="20" font-weight="700" fill="#18212f">Proyeksi Nasional SDM JFA 2026-2031</text>
<text x="80" y="50" font-family="Arial" font-size="12" fill="#526070">OLS total nasional; area biru muda menunjukkan 95% confidence interval mean projection.</text><g font-family="Arial"><line x1="80" y1="414.0" x2="880" y2="414.0" stroke="#e7edf3"/><text x="68" y="418.0" text-anchor="end" font-size="12" fill="#445">25.000</text><line x1="80" y1="364.9" x2="880" y2="364.9" stroke="#e7edf3"/><text x="68" y="368.9" text-anchor="end" font-size="12" fill="#445">30.000</text><line x1="80" y1="315.9" x2="880" y2="315.9" stroke="#e7edf3"/><text x="68" y="319.9" text-anchor="end" font-size="12" fill="#445">35.000</text><line x1="80" y1="266.8" x2="880" y2="266.8" stroke="#e7edf3"/><text x="68" y="270.8" text-anchor="end" font-size="12" fill="#445">40.000</text><line x1="80" y1="217.8" x2="880" y2="217.8" stroke="#e7edf3"/><text x="68" y="221.8" text-anchor="end" font-size="12" fill="#445">45.000</text><line x1="80" y1="168.7" x2="880" y2="168.7" stroke="#e7edf3"/><text x="68" y="172.7" text-anchor="end" font-size="12" fill="#445">50.000</text><line x1="80" y1="119.7" x2="880" y2="119.7" stroke="#e7edf3"/><text x="68" y="123.7" text-anchor="end" font-size="12" fill="#445">55.000</text><line x1="80" y1="70.6" x2="880" y2="70.6" stroke="#e7edf3"/><text x="68" y="74.6" text-anchor="end" font-size="12" fill="#445">60.000</text></g>
<line x1="80" y1="445" x2="880" y2="445" stroke="#9aa8b6"/><line x1="80" y1="50" x2="80" y2="445" stroke="#9aa8b6"/>
<polygon points="222.5,372.3 354.0,312.8 485.5,251.1 617.0,189.0 748.5,126.9 880.0,64.7 880.0,267.0 748.5,291.6 617.0,316.2 485.5,340.8 354.0,365.8 222.5,393.1" fill="#8ec5ff" opacity="0.28"/><polyline points="222.5,382.7 354.0,339.3 485.5,296.0 617.0,252.6 748.5,209.2 880.0,165.9" fill="none" stroke="#0f766e" stroke-width="3"/><polyline points="80.0,430.3 200.5,385.8 211.5,386.3 222.5,386.1" fill="none" stroke="#0b5cab" stroke-width="3"/><circle cx="80.0" cy="430.3" r="5" fill="#0b5cab"/><circle cx="200.5" cy="385.8" r="5" fill="#0b5cab"/><circle cx="211.5" cy="386.3" r="5" fill="#0b5cab"/><circle cx="222.5" cy="386.1" r="5" fill="#0b5cab"/><g font-family="Arial"><text x="222.5" y="482" text-anchor="middle" font-size="12" fill="#445">2026</text><text x="354.0" y="482" text-anchor="middle" font-size="12" fill="#445">2027</text><text x="485.5" y="482" text-anchor="middle" font-size="12" fill="#445">2028</text><text x="617.0" y="482" text-anchor="middle" font-size="12" fill="#445">2029</text><text x="748.5" y="482" text-anchor="middle" font-size="12" fill="#445">2030</text><text x="880.0" y="482" text-anchor="middle" font-size="12" fill="#445">2031</text></g>
<rect x="645" y="70" width="220" height="70" fill="#fff" stroke="#d8e0e8"/><line x1="665" y1="94" x2="700" y2="94" stroke="#0b5cab" stroke-width="3"/><text x="710" y="98" font-family="Arial" font-size="12" fill="#334">Aktual</text><line x1="665" y1="120" x2="700" y2="120" stroke="#0f766e" stroke-width="3"/><text x="710" y="124" font-family="Arial" font-size="12" fill="#334">Proyeksi OLS</text></svg>